# xmcd
#
# Track frame offsets:
# 150
# 10576
# 23466
# 41281
# 52672
# 66367
# 81364
# 97075
# 109212
# 120708
#
# Disc length: 1755 seconds
#
#
# Revision: 0
# Processed by: cddbd v1.5.1PL0 Copyright (c) Steve Scherf et al.
# Submitted via: FreeRIP 2.51 
#
DISCID=7206d90a
DTITLE=Myra Pearce - Somebody Loves You
DYEAR=1999
DGENRE=Country
TTITLE0=For the Last Time
TTITLE1=My Turn to Forget
TTITLE2=You Are Always There for Me
TTITLE3=Somebody Loves You Honey
TTITLE4=I'm Comin' Home
TTITLE5=Let's Put Love Back to Work
TTITLE6=Baby Sweet Baby
TTITLE7=Let Me Help You Carry the Weight
TTITLE8=Rollin' on Home for Christmas
TTITLE9=He Is My Everything
EXTD=
EXTT0=
EXTT1=
EXTT2=
EXTT3=
EXTT4=
EXTT5=
EXTT6=
EXTT7=
EXTT8=
EXTT9=
PLAYORDER=
